# xmcd CD database file
#
# Track frame offsets:
#	150
#	10126
#	19838
#	34013
#	45225
#	54644
#	65101
#	74085
#	86104
#	100388
#	111391
#	130715
#
# Disc length: 1922 seconds
#
# Revision: 0
# Processed by: cddbd v1.5.2PL0 Copyright (c) Steve Scherf et al.
# Submitted via: CDex 1.70beta2
#
DISCID=a807800c
DTITLE=DISFIGURED (U.S.A,TEXAS) - AMPUTATED GOREWHORE (2011 ALBUM)
DYEAR=2011
DGENRE=Brutal Death Metal
TTITLE0=CAPTURED AND MUTILATED
TTITLE1=CADAVER MEATBALLS
TTITLE2=EMBALMING THE CORPSE
TTITLE3=CHAINSAW BUTTPLUG
TTITLE4=VEHICULAR VASECTOMY
TTITLE5=CUNT FORCE TRAUMA
TTITLE6=RAPING A RETARD
TTITLE7=BODYFARM BUFFET
TTITLE8=VOMIT CREMEPIE SURPRISE
TTITLE9=HELD CAPTIVE FOR SODOMISTIC RITUALS
TTITLE10=DROWNING IN FECES
TTITLE11=SACRAFICE THE INNOCENT
EXTD=YEAR: 2011
EXTT0=
EXTT1=
EXTT2=
EXTT3=
EXTT4=
EXTT5=
EXTT6=
EXTT7=
EXTT8=
EXTT9=
EXTT10=
EXTT11=
PLAYORDER=
